<svg width="5177" height="3183" viewBox="0 0 5177 3183" fill="none" xmlns="http://www.w3.org/2000/svg">
<path fill-rule="evenodd" clip-rule="evenodd" d="M4240.48 0L5056.18 895.216C5217.27 1072.01 5217.27 1342.44 5056.18 1519.23L4240.48 2414.45H3154.72C2878.08 2414.45 2653.82 2190.09 2653.82 1913.34V0H4240.48ZM4028.09 1893.62L4486.99 1379.09C4574.32 1281.17 4574.32 1133.28 4486.99 1035.36L4028.09 520.832H3337.51C3283.02 520.832 3238.85 565.023 3238.85 619.535V1794.91C3238.85 1849.43 3283.02 1893.62 3337.52 1893.62H4028.09Z" fill="#EFF3CE"/>
<path d="M0 50.2714H479.291L2291.05 1060.71C2377.59 1108.98 2431.23 1200.33 2431.23 1299.45V2414.45H1951.94V1615.31C1951.94 1513.77 1895.68 1420.6 1805.85 1373.36L679.467 781.012C588.497 733.172 479.291 799.17 479.291 901.982V2414.45H0V50.2714Z" fill="#EFF3CE"/>
<path d="M2012.51 311.297C2092.15 311.297 2156.71 375.882 2156.71 455.557V675.742C2156.71 705.097 2180.49 728.89 2209.83 728.89H2407.16C2436.5 728.89 2460.28 705.097 2460.28 675.742V151.852C2460.28 72.178 2395.73 7.59261 2316.09 7.59261H1648.21C1618.87 7.59261 1595.09 31.3862 1595.09 60.7409V258.149C1595.09 287.503 1618.87 311.297 1648.21 311.297H2012.51Z" fill="#EFF3CE"/>
<path d="M223.449 2760.96C339.378 2760.96 433.683 2855.3 433.683 2971.27C433.683 3087.24 339.378 3181.58 223.449 3181.58H0V2760.96H223.449ZM223.449 3138.31C315.351 3138.31 390.435 3063.8 390.435 2971.87C390.435 2879.33 315.351 2804.83 223.449 2804.83H43.2481V3138.31H223.449Z" fill="#EFF3CE"/>
<path d="M1347.43 2915.39C1347.43 3000.11 1278.95 3068.61 1195.46 3069.81L1347.43 3181.58H1274.14L1122.18 3069.81H990.028V3181.58H946.78V2760.96H1193.05C1277.75 2760.96 1347.43 2830.66 1347.43 2915.39ZM1193.05 3026.55C1254.32 3026.55 1303.58 2976.68 1303.58 2915.39C1303.58 2854.7 1254.32 2804.83 1193.05 2804.83H990.028V3026.55H1193.05Z" fill="#EFF3CE"/>
<path d="M2067.31 2760.96C2183.24 2760.96 2277.55 2855.9 2277.55 2971.87C2277.55 3087.24 2183.24 3182.18 2067.31 3182.18H2051.1C1935.17 3182.18 1840.86 3087.24 1840.86 2971.87C1840.86 2855.9 1935.17 2760.96 2051.1 2760.96H2067.31ZM2067.31 3138.31C2159.22 3138.31 2234.3 3063.8 2234.3 2971.87C2234.3 2879.33 2159.22 2804.83 2067.31 2804.83H2051.1C1958.59 2804.83 1884.11 2879.33 1884.11 2971.27C1884.11 3063.8 1958.59 3138.31 2051.1 3138.31H2067.31Z" fill="#EFF3CE"/>
<path d="M3165.3 3138.31V2760.96H3209.15V3182.18L3130.46 3181.58L2847.54 2804.83H2834.33V3182.18H2791.08V2760.96H2869.17L3152.08 3138.31H3165.3Z" fill="#EFF3CE"/>
<path d="M3743.71 3181.58V2760.96H4143.76V2804.83H3786.96V2949.64H4116.13V2993.5H3786.96V3138.31H4143.76V3181.58H3743.71Z" fill="#EFF3CE"/>
<path d="M4921.41 2962.26C4986.28 2968.87 5035.53 3016.34 5035.53 3071.62C5035.53 3132.31 4976.67 3181.58 4904.59 3181.58H4633.69V3138.31H4904.59C4952.64 3138.31 4992.29 3108.27 4992.29 3071.62C4992.29 3037.97 4959.85 3009.73 4916.6 3004.92H4915.4L4747.81 2980.88C4682.34 2974.27 4633.69 2926.8 4633.69 2871.52C4633.69 2810.83 4692.55 2760.96 4764.63 2760.96H5005.5V2804.83H4764.63C4715.98 2804.83 4676.94 2834.87 4676.94 2871.52C4676.94 2904.57 4709.37 2933.41 4752.62 2938.22H4753.82L4921.41 2962.26Z" fill="#EFF3CE"/>
</svg>